<?xml version="1.0" standalone="no"?>
<!DOCTYPE svg PUBLIC "-//W3C//DTD SVG 20010904//EN"
 "http://www.w3.org/TR/2001/REC-SVG-20010904/DTD/svg10.dtd">
<svg version="1.0" xmlns="http://www.w3.org/2000/svg"
 width="718.000000pt" height="718.000000pt" viewBox="0 0 718.000000 718.000000"
 preserveAspectRatio="xMidYMid meet">
<metadata>
Created by potrace 1.11, written by Peter Selinger 2001-2013
</metadata>
<g transform="translate(0.000000,718.000000) scale(0.100000,-0.100000)"
fill="#000000" stroke="none">
<path d="M3280 7159 c-536 -48 -1072 -222 -1530 -497 -599 -360 -1069 -872
-1375 -1497 -178 -362 -285 -714 -341 -1120 -21 -159 -30 -594 -15 -762 65
-722 323 -1364 780 -1943 100 -127 420 -445 556 -554 1308 -1041 3162 -1041
4470 0 136 109 456 427 556 554 386 490 625 1011 733 1602 57 309 56 264 56
2328 l0 1900 -1897 -1 c-1044 -1 -1941 -6 -1993 -10z m3247 -2246 c-3 -1613
-3 -1618 -25 -1753 -106 -649 -385 -1203 -832 -1650 -454 -454 -1010 -733
-1670 -837 -165 -26 -655 -26 -820 0 -352 56 -620 141 -920 293 -683 345
-1209 950 -1457 1679 -151 445 -192 964 -113 1435 163 961 792 1777 1685 2187
287 132 637 223 960 252 55 4 797 9 1648 10 l1548 1 -4 -1617z"/>
<path d="M2223 4826 c-128 -31 -271 -141 -331 -253 -94 -178 -88 -388 16 -548
184 -284 560 -327 797 -90 290 290 155 787 -242 890 -68 18 -168 18 -240 1z"/>
<path d="M4383 4825 c-185 -50 -334 -203 -378 -386 -79 -337 170 -659 509
-659 183 0 371 121 456 294 103 210 67 438 -97 608 -129 133 -319 189 -490
143z"/>
</g>
</svg>
