<svg id="Layer_1" data-name="Layer 1" xmlns="http://www.w3.org/2000/svg" viewBox="0 0 358.29 358.29"><defs><style>.cls-1{fill:#ffe422;}.cls-2{fill:none;stroke:#000;stroke-miterlimit:10;stroke-width:32px;}</style></defs><title>logo</title><path class="cls-1" d="M179.14,16A163.15,163.15,0,1,0,342.29,179.14V16Z"/><path class="cls-2" d="M179.14,16A163.15,163.15,0,1,0,342.29,179.14V16Z"/><path d="M199.22,142.93c0-14.46,11.51-26.29,25.62-26.29a26.38,26.38,0,0,1,.07,52.75C210.74,169.37,199.23,157.52,199.22,142.93Z"/><path d="M116.84,116.65c14.34,0,25.83,11.8,25.81,26.47,0,14.46-11.68,26.28-25.89,26.27S90.9,157.47,91,142.87A26.05,26.05,0,0,1,116.84,116.65Z"/></svg>